<svg xmlns="http://www.w3.org/2000/svg" version="1.1" viewBox="-5.0 -10.0 110.0 135.0">
 <path d="m38.93 40.02c0-0.19141-0.17188-0.48828-0.30859-0.53125-0.19141-0.050781-0.53906 0.039063-0.64062 0.19141-0.19922 0.30859-0.28125 0.69141-0.41016 1.0508 0.058594 0.92969 0.51172 1.5195 1.4102 1.8711 0.23047 0.089844 0.46875 0.30859 0.57812 0.51953 0.30078 0.60156 0.76953 0.96094 1.3711 1.1719 0.71094 0.25 1.4102-0.050781 1.8203-0.67969 0.12891-0.19141 0.37109-0.37109 0.60156-0.42969 1.1289-0.32031 1.8086-1.3398 1.4492-2.3008-0.089843-0.23047-0.33984-0.44922-0.57031-0.53906-0.12109-0.039062-0.42188 0.17969-0.51953 0.35156-0.21094 0.32813-0.42188 0.46875-0.82031 0.32813-0.21875-0.070313-0.5-0.03125-0.73047 0.039062-0.32812 0.10156-0.64062 0.28906-0.96094 0.42969-1.3203 0.57812-2.2695-0.050782-2.2695-1.4727z"/>
 <path d="m44.039 45.078c-0.66016-0.19141-1.2891-0.078125-1.8906 0.25-0.39844 0.23047-0.78125 0.14844-1.1992-0.019531-0.39062-0.16016-0.85156-0.35156-1.2305-0.28125-0.60938 0.10156-1.1094 0-1.6094-0.32812-0.12109-0.078125-0.26953-0.14844-0.41016-0.17969-0.48047-0.10938-0.98047 0.35938-0.89062 0.80859 0.10156 0.46875 1.9102 1.3906 2.3594 1.1992 0.050781-0.019532 0.089843-0.050782 0.12891-0.070313 0.39844-0.23047 0.78125-0.17969 1.1914 0.03125 0.37891 0.19922 0.76172 0.46875 1.1914 0.46875 0.46875 0.011719 0.85937-0.25 1.2188-0.44141 0.48828-0.25 0.94141-0.32031 1.4297-0.039063 0.35156 0.19922 0.69922 0.16016 1.0508-0.019531 0.46094-0.23828 0.92969-0.46094 1.3906-0.69141 0.51953-0.26953 0.53906-0.83984 0.050781-1.1602-0.37891-0.25-0.71094-0.089844-1.0195 0.10938-0.53906 0.375-1.1094 0.55469-1.7617 0.36328z"/>
 <path d="m43.199 47.699c-0.42969-0.019531-0.87109 0-1.3008 0v0.011719c-0.42188 0-0.83984-0.011719-1.25 0-0.35156 0.011718-0.73828 0.050781-0.83984 0.48047-0.10156 0.44922 0.16016 0.78906 0.53906 0.89844 1.0391 0.30859 2.1094 0.32812 3.1406-0.039063 0.33984-0.12109 0.57812-0.42188 0.46875-0.83984-0.085937-0.39063-0.40625-0.5-0.75781-0.51172z"/>
 <path d="m17 81.5c-0.35156 0.011719-0.67188 0.32031-0.67969 0.67969-0.011718 0.35156 0.37109 0.73047 0.71094 0.71094 0.33984-0.011719 0.69141-0.39062 0.67969-0.75-0.011719-0.35156-0.33984-0.65234-0.71094-0.64062z"/>
 <path d="m89.031 78.91c-1.5195-2.2383-4.8984-6.5781-9.3516-8.4688-1.1211-0.46875-1.7617-1.4492-2.1016-2.5781-0.75-3.4297-3.8594-5.7109-4.3594-9.1797-0.39844-3.7891-1.1602-7.5586-0.94141-11.391 0.37109-3.9805-0.26953-7.9219-1.4102-11.738-0.67969-7.3398 0.070312-13.672-4.5898-20.121-6.668-10.762-23.727-12.723-33.027-4.3828-2.75 2.6484-4.75 5.75-5.6211 9.5-0.19141 0.80859-0.51953 1.5-1.0781 2.1094-0.80078 0.87109-1.4609 1.8281-1.8398 2.9609-0.71875 1.8594-0.32031 3.3789-0.23047 4.8594-2.3984-0.12891-4.3203-2.6211-4.3203-5.6602 0-0.64844-0.53125-1.1797-1.1797-1.1797-0.64844 0-1.1797 0.53125-1.1797 1.1797 0 3.1289-2.0312 5.6719-4.5312 5.6719-0.64844 0-1.1797 0.53125-1.1797 1.1797s0.53125 1.1797 1.1797 1.1797c2.4492 0 4.5312 2.6484 4.5312 5.7812 0 0.64844 0.53125 1.1797 1.1797 1.1797 0.64844 0 1.1797-0.53125 1.1797-1.1797 0-2.8906 1.7695-5.3711 3.9688-5.7305-0.19141 0.44141-0.46875 0.89844-0.87891 1.3711-1.4492 2.4102-2.1914 5.1719-1.1992 7.8984 1.0391 3.5898-1.6797 5.4414 0.83984 10.68 1.2188 2.6602 1.3711 5.3516 0.44141 8.1094-0.62109 1.8203-0.89844 3.6719-0.64062 5.5781 0.10156 0.71094-0.19141 1.3203-0.69141 1.8086-0.82031 0.85156-1.9414 1.3984-2.7695 2.2188-0.64844 0.71094-1.3789 1.2617-2.25 1.6406-1.2383 0.55078-2.0586 1.4609-2.3594 2.7695-0.41016 1.8203-1.5391 2.7188-3.5586 5.2695-0.64062 0.80859-0.48828 2 0.33984 2.6211 20.699 15.371 57.422 15.109 77.289-1.5 0.71875-0.61719 0.86719-1.668 0.33984-2.457zm-70.062-44.84c-0.55078-0.96875-1.2812-1.7891-2.1289-2.3984 0.85156-0.60156 1.5703-1.4102 2.1289-2.3711 0.55078 0.96094 1.2812 1.7695 2.1289 2.3711-0.84766 0.60938-1.5664 1.4297-2.1289 2.3984zm54.172 37.57c0.87109-0.32031 1.6406-0.66016 2.5586-0.87109 0.80078 0.42969 0.12891 1.1016-0.48828 1.25-5.9805 2.1602-11.352 5.4883-16.43 9.2617-0.26953 0.19141-0.57031 0.46875-0.85938 0.058594-0.25-0.35156-0.058594-0.64062 0.23047-0.85938 4.5664-3.6211 9.5859-6.6523 14.988-8.8398zm-7.7617-38.379c-2.1406-2.1914-4.5312-4.2188-5.6797-7.1602 0.26953-0.41016 0.57031-0.69922 0.91016-0.23828 1.1094 2.4102 3.0898 4.1289 4.8086 6.0586 0.23047 0.26172 0.48047 0.53125 0.62891 0.82812 0.17188 0.42188-0.29688 0.80859-0.66797 0.51172zm0.33203 2.3398c-0.23047 0.39063-0.48828 0.55078-0.85156 0.30859-1.5117-1.1992-2.8906-2.5312-4.2188-3.9219-0.60938-0.37109-0.33984-1.8398 0.39844-1.0195 1.5391 1.5625 3.2305 2.9531 4.6719 4.6328zm-0.039063 9.3086c-0.75 0.089844-1.2812-0.76953-1.9102-1.1016-1.1602-0.96094-2.6797-1.6406-3.6094-2.8086-0.089844-0.35938 0.10938-0.87109 0.58984-0.58984 1.7617 1.3594 3.7617 2.4102 5.2617 4.0586-0.14453 0.20312-0.21484 0.40234-0.33203 0.44141zm0.75 4.1016c-0.35938 0.80078-1 0.30859-1.1797-0.28125 0.027343-1.1211 0.91797-0.33984 1.1797 0.28125zm-3.1328 24.84c0.12109 0.57813 0 1.0195-0.42969 1.4297-1.5195-1.5586-0.28125-4.7812 0.78125-6.3594 0.98828-1.4297 2.0117-2.8281 3.0391-4.2383 0.10937-0.16016 0.39844-0.33984 0.53125-0.28906 1.0703 0.23047-2.5508 4.7109-2.8789 5.3906-0.76172 1.2344-1.1016 2.5938-1.043 4.0664zm2.4297-10.582c-1.2109 1.5117-2.1406 3.4219-3.5508 4.6914-1.7617-0.050782 2.5898-4.3594 2.9219-5.0781 0.53125-0.66406 1.1016-0.24219 0.62891 0.38672zm-5.3281-7.8477c0.089844-0.078125 0.41016-0.058594 0.51172 0.039063 1.5781 1.4492 2.75 3.1406 2.8984 5.7383-0.10938 0.35156-0.28906 1.0312-0.55078 1.6914-0.050781 0.14062-0.37109 0.17188-0.57031 0.26172-0.078126-0.19141-0.26953-0.42969-0.21875-0.57812 0.76953-2.3281-0.32031-4.1094-1.6914-5.8203-0.28906-0.38281-0.82031-0.86328-0.37891-1.332zm-0.41016-5.0703c-0.03125-2.1016 4.7617 3.3789 2.7109 3.3711-0.96094-1.0117-1.9805-2.1836-2.7109-3.3711zm4.5195 1.4766c-0.12109-0.058594-0.17969-0.070313-0.19922-0.10938-1.0391-1.75-2.8984-2.6406-4.2617-4.0586-0.30859-0.32812-0.10937-1.2812 0.46094-0.82031 1.0781 0.89844 2.1719 1.7812 3.2109 2.7305 0.59766 0.55078 1.0391 1.3984 0.78906 2.2578zm-4.3594-8c0.25-0.26172 0.46094-0.10156 0.64844 0.078125 1.0586 1.0508 2.3008 1.9219 3.1992 3.1211-0.14062 0.35938-0.39062 0.60938-0.73047 0.39062-0.47656-0.63672-4.0469-3.0078-3.1172-3.5898zm10.871 24.973c0.019531 0.019531 0.050781 0.050781 0.070312 0.078125 0.019531 0.03125 0.03125 0.058594 0.050781 0.089844 0.011719 0.03125 0.019532 0.058594 0.03125 0.10156 0.011719 0.03125 0.011719 0.070313 0.011719 0.10156 0 0.14062-0.058593 0.26953-0.14844 0.37109-0.10156 0.10156-0.23047 0.14844-0.37109 0.14844s-0.26953-0.058594-0.37109-0.14844c-0.10156-0.10156-0.14844-0.23047-0.14844-0.37109 0-0.03125 0-0.070313 0.011719-0.10156 0.011718-0.03125 0.019531-0.070312 0.03125-0.10156 0.011718-0.03125 0.03125-0.058594 0.050781-0.089844s0.039062-0.058594 0.058593-0.078125c0.17969-0.19141 0.51953-0.19141 0.72266 0zm-4.0703 1.8008c-0.53125 0.64063-0.98828 3.1914-1.6602 3.1797-0.51953-0.17969-0.44141-0.78125-0.32812-1.2109 0.37891-2.3008 2.2305-3.8789 3.2812-5.8516 1.6992-3.1484 1.1602-6.6211-0.64844-9.5898-0.14844-0.30078-0.32813-0.64062 0.058593-0.87891 0.37109-0.23047 0.55859 0.10938 0.73047 0.32812 1.4219 1.6992 1.8398 3.8789 2.0312 6.0312 0.054688 3.1289-1.6953 5.5898-3.4648 7.9922zm3.0586-15.641c0.019531 0.019531 0.050781 0.050781 0.070312 0.078124 0.019532 0.03125 0.03125 0.058594 0.050782 0.089844 0.011718 0.03125 0.019531 0.058594 0.03125 0.10156 0.011718 0.03125 0.011718 0.070312 0.011718 0.10156 0 0.14062-0.058593 0.26953-0.14844 0.37109-0.10156 0.10156-0.23047 0.14844-0.37109 0.14844s-0.26953-0.058593-0.37109-0.14844c-0.10156-0.10156-0.14844-0.23047-0.14844-0.37109 0-0.03125 0-0.070312 0.011719-0.10156s0.019531-0.070313 0.03125-0.10156 0.03125-0.058594 0.050781-0.089844 0.039062-0.058593 0.058594-0.078124c0.17188-0.19141 0.52344-0.19141 0.72266 0zm-2.0391-2.9609c-4.2305 5.2812 0.078124 7.1484-1.25 8.1406-0.17188 0.050781-0.5-0.14062-0.62109-0.30859-1.2188-1.8086-1.6289-4.5195-0.30859-6.5508 1.8281-2.4492 3.2383-5.3086 2.0312-8.3711-0.30859-2.8086-8.6211-5.8906-7.5508-7.4492 0.28125-0.28906 0.46875-0.050782 0.69141 0.10156 1.5195 1.0586 3.0312 2.1406 4.5586 3.1797 3.9883 2.2461 4.9375 7.5273 2.4492 11.258zm0.89844-11.359c0.10938 0.96094-0.82812 0.48828-1.1914 0.039063-1.1602-0.82031-2.3516-1.5898-3.4883-2.4414-0.53125-0.60156-5.5898-3.5781-3.5312-4.0781 1.7305 1.5703 3.5586 3.0195 5.6016 4.1914 0.89844 0.66797 2.0195 1.3086 2.6094 2.2891zm-0.75-6.6406c0.019531 0.03125 0.03125 0.058594 0.050781 0.089844 0.011719 0.03125 0.019532 0.058594 0.03125 0.10156 0.011719 0.03125 0.011719 0.070313 0.011719 0.10156 0 0.14062-0.058594 0.26953-0.14844 0.37109-0.10156 0.10156-0.23047 0.14844-0.37109 0.14844s-0.26953-0.058594-0.37109-0.14844c-0.10156-0.10156-0.14844-0.23047-0.14844-0.37109 0-0.03125 0-0.070313 0.011719-0.10156s0.019531-0.070312 0.03125-0.10156 0.03125-0.058594 0.050781-0.089844c0.019532-0.03125 0.039063-0.058594 0.058594-0.078125 0.19141-0.19141 0.53906-0.19141 0.73047 0 0.023437 0.019531 0.042969 0.046875 0.0625 0.078125zm-0.30078-3.3984c0.019531 0.03125 0.03125 0.058594 0.050781 0.089844 0.011719 0.03125 0.019531 0.058594 0.03125 0.10156 0.011719 0.03125 0.011719 0.070312 0.011719 0.10156 0 0.14062-0.058594 0.26953-0.14844 0.37109-0.10156 0.10156-0.23047 0.14844-0.37109 0.14844-0.14062 0-0.26953-0.058593-0.37109-0.14844-0.10156-0.10156-0.14844-0.23047-0.14844-0.37109 0-0.03125 0-0.070312 0.011719-0.10156s0.019531-0.070313 0.03125-0.10156 0.03125-0.058594 0.050781-0.089844 0.039063-0.058593 0.058594-0.078124c0.19141-0.19141 0.53906-0.19141 0.73047 0 0.015625 0.015624 0.042968 0.046874 0.0625 0.078124zm-3.0703-10.312c0.28906-0.26953 0.53125-0.050781 0.73828 0.14844 1.3789 1.0781 2.9805 5.1719 1.7305 6.5703-0.62891-0.53906-0.39844-1.4297-0.57031-2.1602-0.19141-1.3594-0.73828-2.5508-1.6797-3.5703-0.23828-0.28906-0.58594-0.65625-0.21875-0.98828zm-1.8477-4.0508c0.32031-0.89062 1.0312 0.23828 1.2188 0.64844 0.058594 0.12891-0.12891 0.37891-0.21094 0.57812-0.39844-0.066406-1.0898-0.94531-1.0078-1.2266zm-0.82031 4.6523c0.33984-0.28906 0.78125 0 1.0391 0.30078 1.5 1.4688 2.8281 3.8008 1.9805 5.8906-0.46094-0.37891-0.48047-0.92969-0.57031-1.4688-0.26953-1.4688-0.96875-2.6914-2.0508-3.7109-0.30859-0.24219-0.66016-0.65234-0.39844-1.0117zm-1.4414-3.6406c0.011719-0.03125 0.019532-0.070312 0.03125-0.10156 0.011719-0.03125 0.03125-0.058594 0.050782-0.089844 0.019531-0.03125 0.039062-0.058594 0.058593-0.078125 0.19141-0.19141 0.53906-0.19141 0.73047 0 0.019531 0.019531 0.050781 0.050781 0.070312 0.078125 0.019532 0.03125 0.03125 0.058594 0.050782 0.089844 0.011718 0.03125 0.019531 0.058593 0.03125 0.10156 0.011718 0.03125 0.011718 0.070312 0.011718 0.10156 0 0.14063-0.058593 0.26953-0.14844 0.37109-0.10156 0.10156-0.23047 0.14844-0.37109 0.14844s-0.26953-0.058594-0.37109-0.14844c-0.10156-0.10156-0.14844-0.23047-0.14844-0.37109-0.003906-0.03125 0.003906-0.070312 0.003906-0.10156zm-0.59766 4.3789c1.9219 1.1992 3.0391 2.9297 3.2891 5.1992-0.62891 1.3203-1.3086-3.1016-3.8984-4.4102-0.72266-0.38672 0-1.3398 0.60938-0.78906zm-7.2812-13.129c1.9492 0.23828 6.3086 2.5 6.7695 4.4414-0.17188-0.058594-0.39062-0.070312-0.51172-0.19141-1.9805-1.9609-4.4297-3.0391-6.9805-4.0117v-0.19922c0.24219-0.007812 0.49219-0.078124 0.72266-0.039062zm-9.6016 2.0508c0.91016 0.039063 1.1992-0.71875 0.35156-1.2305 1.5312-1.2695 3.5312-1.25 5.3594-0.85156 1.1602 0.51953 2.2305 1.3086 3.4219 1.7617 1.1484 0.28125 7.3711 3.8711 6.6094 5.0117-0.76172 0.050781-1.3008-1.0195-1.9414-1.3906-2.9805-2.4609-6.4414-3.8398-10.23-4.4297-0.89844-0.28906-1.6094 0.91016-0.5 1.1406 1.1719 0.03125 9.8516 2.6211 8.4492 4.2695-3.4297-2.4688-7.2891-3.6211-11.488-3.4414-0.91797 0.1875-0.89844-0.90234-0.03125-0.83984zm9.4531 5.3984c-2.7383-1.6406-5.7188-2.4297-8.8711-2.6211-0.12891-0.03125-0.32812-0.19141-0.30859-0.26953 0.058594-0.21094 0.21875-0.51953 0.5-0.46094 1.3281-0.26953 9.5664 1.5742 8.6797 3.3516zm-19.062-1.3203c0.83984-0.92969 2-1.3398 3.1016-1.8711 0.60156-0.26172 0.67969-1.0781-0.10156-1.1016-2.1094-0.5 3.8281-3.3203 4.5586-3.1289 0.30078-0.050782 0.76953-0.23828 0.85156 0.21094 0.050781 0.71875-1.4688 0.58984-1.9688 0.83984-0.73047 0.14062-0.66016 1.1484 0.12109 1.0508 1.0312-0.19922 0.85156 0.91016-0.070312 0.80078-0.55078 0.019531-1.4414-0.23828-1.5898 0.51953-0.10156 0.5 0.33984 0.57031 0.69141 0.75-0.039062 0.44922-0.19922 0.69922-0.67969 0.73828-1.5586 0.10156-2.9492 0.69141-4.25 1.5195-0.23047 0.23047-0.53125 0.21094-0.82812 0.21094 0.054688-0.19922 0.046875-0.42969 0.16406-0.53906zm-3.1875 11.902c0.51172-6.0195 1.9102-10.941 8.8594-11.191 0.71094-0.078125 0.96875-0.28906 1.1602-0.96875 0.26953-0.64844 0.30859-2.1719 1.3203-1.8984 0.35156 0.33984 0 0.94141-0.039062 1.3516-0.19141 1 0.12891 1.4414 1.1406 1.4883 2.8789 0.14062 6.3398 1.0117 9.1016 2.6289h-4.1484c-0.26172 0-0.46875 0.21094-0.46875 0.46875 0 0.26172 0.21094 0.46875 0.46875 0.46875h5.5586c0.37109 0.28125 0.71875 0.57812 1.0508 0.89844h-5.6016c-0.26172 0-0.46875 0.21094-0.46875 0.46875 0 0.26172 0.21094 0.46875 0.46875 0.46875h6.4492c0.23047 0.28906 0.44141 0.58984 0.62109 0.89844h-6.3086c-0.26172 0-0.46875 0.21094-0.46875 0.46875 0 0.26172 0.21094 0.46875 0.46875 0.46875h6.7891c0.078124 0.17969 0.14844 0.35938 0.21094 0.55078 0.039063 0.10938 0.070313 0.23047 0.10938 0.35156l-5.8242 0.007813c-0.26172 0-0.46875 0.21094-0.46875 0.46875 0 0.26172 0.21094 0.46875 0.46875 0.46875h6.0898c0.078125 0.28906 0.14844 0.58984 0.21875 0.89844h-3.8398c-0.26172 0-0.46875 0.21094-0.46875 0.46875 0 0.26172 0.21094 0.46875 0.46875 0.46875h4.0508c0.058594 0.28906 0.12109 0.58984 0.17188 0.89844h-2.0703c-0.26172 0-0.46875 0.21094-0.46875 0.46875 0 0.26172 0.21094 0.46875 0.46875 0.46875h2.2305c0.050781 0.30078 0.089844 0.60156 0.12891 0.89844h-1.5c-0.26172 0-0.46875 0.21094-0.46875 0.46875 0 0.26172 0.21094 0.46875 0.46875 0.46875h1.6094c0.03125 0.30078 0.058594 0.60156 0.089844 0.89844h-2.7305s-0.39062 0-0.51172-0.42969c-0.078125-0.32031-0.078125-0.71094-0.23047-0.89062-0.76953-0.83984-1.2305 0.23828-1 1.0391-2.7695-1.5586-5.6484-2.0117-8.7383-1.5703-1.2695 0.14062-2.0312 0.98047-2.3203 2.1406-0.070313 0.80859-0.67188 2.9805 0.37891 3.2695 0.73828 0.16016 0.91016-0.66016 1.2617-1.0898 0.17969-0.17188 0.42188-0.37109 0.64844-0.37891 1.1211-0.078125 1.6016-1.3984 2.8516-1.1289-0.21875 2.1094 2.5312 2.5898 3.1992 0.71875 0.17188-0.55859 0.32813-0.60938 0.82031-0.23828 1.5195 1.4102 1.3008-0.5 3.25-0.5h3.1797c0.019532 0.30078 0.03125 0.60156 0.039063 0.89844h-2.4102c-0.26172 0-0.46875 0.21094-0.46875 0.46875 0 0.26172 0.21094 0.46875 0.46875 0.46875h2.4414v0.89844h-3.0195c-0.26172 0-0.46875 0.21094-0.46875 0.46875 0 0.26172 0.21094 0.46875 0.46875 0.46875h3c-0.011719 0.30078-0.03125 0.60156-0.039063 0.89844h-3.5117c-0.26172 0-0.46875 0.21094-0.46875 0.46875 0 0.26172 0.21094 0.46875 0.46875 0.46875h3.4414c-0.03125 0.30078-0.058594 0.60156-0.089844 0.89844h-3.6289c-0.26172 0-0.46875 0.21094-0.46875 0.46875 0 0.26172 0.21094 0.46875 0.46875 0.46875h3.5c-0.050781 0.30078-0.10156 0.60156-0.14844 0.89844h-3.6797c-0.26172 0-0.46875 0.21094-0.46875 0.46875 0 0.26172 0.21094 0.46875 0.46875 0.46875h3.4805c-0.070312 0.30078-0.14062 0.60156-0.21875 0.89844h-3.6484c-0.26172 0-0.46875 0.21094-0.46875 0.46875 0 0.26172 0.21094 0.46875 0.46875 0.46875h3.3711c-0.10156 0.30078-0.19922 0.60156-0.30859 0.89844h-3.5391c-0.26172 0-0.46875 0.21094-0.46875 0.46875 0 0.26172 0.21094 0.46875 0.46875 0.46875h3.1602c-0.12891 0.30078-0.26953 0.60938-0.42188 0.89844h-3.2695c-0.26172 0-0.46875 0.21094-0.46875 0.46875 0 0.26172 0.21094 0.46875 0.46875 0.46875h2.7617c-0.17969 0.30859-0.37891 0.60938-0.57812 0.89844h-2.9492c-0.26172 0-0.46875 0.21094-0.46875 0.46875 0 0.26172 0.21094 0.46875 0.46875 0.46875h2.2188c-0.26172 0.30859-0.53906 0.60938-0.82813 0.89844h-2.8008c-0.26172 0-0.46875 0.21094-0.46875 0.46875 0 0.26172 0.21094 0.46875 0.46875 0.46875h1.7188c-0.42188 0.32031-0.87109 0.62891-1.3398 0.89844h-2.1406c-0.26172 0-0.46875 0.21094-0.46875 0.46875 0 0.26172 0.21094 0.46875 0.46875 0.46875h0.10938c-1.8086 0.64844-5.8594 1.6797-7.9883 1.0586-6.8281-1.9883-11.422-12.141-10.039-19.922 0.35938-1.2812 1.5508 0.37891 2.4414-0.82031 0.28906-0.28125 0.71094-0.42969 1.1406-0.67187-0.039063 1.8086 1.7812 2.6914 3.0703 1.3594 0.16016-0.17969 0.42969-0.44922 0.58984-0.41016 1.1484 0.12891 0.30078 1.8789 1.2812 1.9883 1.1094-0.14063 0.48828-1.9414 0.53125-2.7109-0.12891-1.4805-1.1094-2.8008-2.6602-2.9297-4.9766-0.95312-7.2969 4.668-6.7266-2.3516zm19.777 4.1094c-1.6719-0.17188-3.3203-0.23828-4.8984 0.51172 0.78906-1.5508 3.7188-1.6406 4.8984-0.51172zm7.9023 22.27c0 0.14062-0.058594 0.26953-0.14844 0.37109-0.10156 0.10156-0.23047 0.14844-0.37109 0.14844s-0.26953-0.058594-0.37109-0.14844c-0.10156-0.10156-0.14844-0.23047-0.14844-0.37109 0-0.03125 0-0.070312 0.011718-0.10156 0.011719-0.03125 0.019532-0.070313 0.03125-0.10156 0.011719-0.03125 0.03125-0.058593 0.050782-0.089843 0.019531-0.03125 0.039062-0.058594 0.058593-0.078126 0.19141-0.19141 0.53906-0.19141 0.73047 0 0.019531 0.019532 0.050781 0.050782 0.070312 0.078126 0.019532 0.03125 0.03125 0.058593 0.050782 0.089843 0.011718 0.03125 0.019531 0.058594 0.03125 0.10156-0.007813 0.03125 0.003906 0.0625 0.003906 0.10156zm-2.3711 1.8984h-4.6992c2.1406-0.87891 3.3516-1.7617 3.3516-1.7617 0.24609 0.39453 0.74609 0.97266 1.3477 1.7617zm-25.898 8.1797c0.21094 0.98828 1.7891 1.8281 0.82031 2.8008-1.2383 1.5703-2.3086 3.2383-3.0781 5.0898-0.16016 0.48828-0.82031 0.98047-1.0508 0.26172 0.57031-1.9102 1.4609-3.6289 2.6992-5.1914 0.60156-0.73828 0.60156-0.76953 0.10156-1.5586-1.5312-2.3398-0.76953-5 1.75-6.3008 0.55469 1.2695-2.293 2.1797-1.2422 4.8984zm-4.1328 3.6016c0.48828-0.55078 1.1602-2.0195 1.9492-1.9492 0.25 0.14844 0.17188 0.41016 0.03125 0.66016-0.60938 1.0703-1.2188 2.1406-1.7812 3.2305-0.26953 0.53125-0.75 2.7891-1.4492 1.4102 0.24219-1.293 0.62109-2.3828 1.25-3.3516zm-0.16016-3.7891c0-0.03125 0-0.070312 0.011719-0.10156s0.019531-0.070313 0.03125-0.10156 0.03125-0.058594 0.050781-0.089844 0.039062-0.058593 0.058594-0.078124c0.19141-0.19141 0.53906-0.19141 0.73047 0 0.019532 0.019531 0.050782 0.050781 0.070313 0.078124 0.019531 0.03125 0.03125 0.058594 0.050781 0.089844 0.011719 0.03125 0.019532 0.058594 0.03125 0.10156 0.011719 0.03125 0.011719 0.070312 0.011719 0.10156 0 0.14062-0.058594 0.26953-0.14844 0.37109-0.10156 0.10156-0.23047 0.14844-0.37109 0.14844s-0.26953-0.058593-0.37109-0.14844c-0.09375-0.10156-0.15625-0.23047-0.15625-0.37109zm7.7422-32.16c0.58984-0.55078 2.9883-1.2109 3.2383-0.089844-1.0703 0.070313-2.1289 0.14062-3.1797 0.21094-0.019531-0.042969-0.039062-0.082031-0.058593-0.12109zm-2.3203 24.621c-0.94141 1.8906-2.5781 3.3086-3.8906 4.9414-0.19141 0.21875-0.37109 0.60938-0.76172 0.32031-1.1797-0.44141 3.4297-4.7812 3.9297-5.5195 0.37109-0.28516 0.57031-0.09375 0.72266 0.25781zm-1.2617-2.1602c-1.0703 1.3516-1.9688 2.9492-3.2812 4.0703-1.7305-0.17188 2.3281-3.8398 2.6719-4.5312 0.58984-0.67188 1.1016-0.15234 0.60938 0.46094zm-1.7383-1.7734c-0.32812-0.10156-0.57031-0.28906-0.35938-0.55078 0.33984-0.30078 2.0508-2.9883 2.1211-1.5312-0.40234 0.80469-1.0039 1.6055-1.7617 2.082zm-0.23047-3.0391c-1.2188 0.94922-1.9688 2.1406-1.4219 3.6797 0.078125 0.48828 0.71875 1.4102-0.011719 1.6406-0.16016 0.03125-0.46094-0.16016-0.55078-0.32812-0.96094-1.5312-0.98047-3.6289 0.30078-4.8203 0.89844-0.67969 2.4414-2.8711 3.4219-2.9492 0.80078 0.50781-1.418 2.1992-1.7383 2.7773zm1.1914-5.0078c-1.0117 1.6602-2.5898 2.9805-4.0312 4.25-0.78125-0.03125-0.51172-0.87891-0.078124-1.1992 1.1602-1.1602 2.3086-2.3086 3.4883-3.4609 0.12109-0.10938 0.33984-0.12109 0.51172-0.17188 0.039062 0.19922 0.17969 0.44922 0.10937 0.58203zm-1.2812-3c0.10938-0.10938 0.32813-0.12891 0.5-0.14062 0.039063 0 0.10156 0.17969 0.16016 0.30078-0.75 1.4492-2.2109 2.3984-3.2891 3.6016-0.12109 0.12109-0.44922 0.16016-0.60156 0.078125-1.0312-0.58203 2.7695-3.1992 3.2305-3.8398zm0.050782-15.391c0.19922-0.30859 0.48828-0.42969 0.82812-0.51172 0.050781 1.0117-0.62891 1.8906-0.80078 2.8594-0.58984 1.2812 0.82031 3.9297-0.17188 4.5312-0.84766-0.55859-1.9961-4.75 0.14453-6.8789zm-3.6992 14.789c-0.050781-2.3516 1.6406-3.6289 3.1094-5.0898 0.12891-0.12891 0.39844-0.10938 0.60938-0.16016 0.30078 1.1992-1.1211 1.9102-1.7188 2.7891-1.6484 1.4883-0.35156 4.0898-1.3398 4.1289-0.69141-0.11719-0.55078-1.2383-0.66016-1.668zm-2.5938 31.391c0.12109-0.10156 0.32031-0.10937 0.48047-0.17187-0.10156 0.91016-0.92188 1.5195-1.2812 2.3203-0.51953 0.94141-0.67188 1.9805-0.66016 3.0508 0.10156 0.39844-0.10938 0.64844-0.37109 0.92188-1.4766-1.5898 0.43359-5.0703 1.832-6.1211zm-0.5 12.289c-0.32812 0.53906-0.62891 1.0898-0.89844 1.6602-0.30078-0.14844-0.60156-0.30078-0.89063-0.44922 0.92188-1.3984-0.32812-2.2617-1.1094-0.60937-1-0.55078-1.9805-1.1484-2.9219-1.7812 0.26953-0.51953-0.57031-1.1211-0.96094-0.64844-0.28125-0.19922-0.55859-0.39844-0.83984-0.60156 0.55078-0.69141 1.1797-1.3594 1.8203-1.9805 1.8594 1.3711 3.9219 2.6094 6.0312 3.6602 0.10156 0.16016 0.011718 0.35156-0.23047 0.75zm1.6836-10.629c0.19922-0.32812 0.5-0.44922 0.87891-0.48828 0 0.19141 0.078125 0.44141-0.011719 0.57812-0.62891 1.0117-1.1016 2.0703-1.1289 3.2812-0.10938 0.82031 0.30078 1.7188-0.19141 2.4414-1.6875-1.2227-0.70703-4.4414 0.45312-5.8125zm8.6289 16.43c0.28125-0.46094 0.94141-1.3008 0.30859-1.6016-0.85938-0.46875-1.1719 0.75-1.6094 1.25-0.44141-0.12109-0.87891-0.25-1.3086-0.37891 0.30078-0.48828 0.78906-1.1094 0.28125-1.6094-0.78125-0.39062-1.1992 0.69141-1.5312 1.2109-0.33984-0.10938-0.67969-0.23047-1.0195-0.35156 0.21875-0.53906 1.0195-1.2617 0.32031-1.75-0.85156-0.51953-1.1406 0.80859-1.5391 1.3086-0.28125-0.10938-0.57031-0.21875-0.85156-0.32812 0.30859-0.60156 1.1602-1.7383 0.37891-2.0586-0.64062-0.46875-1.2305 1.0195-1.5312 1.5898-0.30078-0.12109-0.58984-0.25-0.87891-0.37891 0.32812-0.73828 0.73828-1.7891 1.3203-2.3281 3.2812 1.4297 6.8398 2.5703 10.59 3.3906-0.53125 0.76953-1.3398 1.9492-1.6211 2.3711-0.4375-0.11719-0.87891-0.22656-1.3086-0.33594zm15.859-0.082031c-1.1211 0.050781-1.1406 1.4688-1.6406 2.2109-0.32031-0.019531-0.64062-0.03125-0.96094-0.050781 0.14062-0.62891 0.98047-1.9492 0.10156-2.1992-0.96094-0.23828-1.1406 1.5117-1.6094 2.0898-0.37891-0.03125-0.76172-0.070312-1.1289-0.10156 0.17969-0.57031 0.92969-1.7109 0.14062-1.9883-1.0117-0.26172-1.1094 1.2383-1.5781 1.8281-0.39844-0.050782-0.80078-0.10156-1.1914-0.14844 0.19922-0.55078 0.96094-1.3906 0.23047-1.8086-0.35938-0.19922-0.64844-0.058594-0.85156 0.26953-0.26172 0.44141-0.51953 0.89062-0.78125 1.3398-0.41016-0.058593-0.80859-0.12891-1.2188-0.19922 0.23828-0.5 0.89844-1.1914 0.23828-1.6406-0.85938-0.44922-1.1602 0.89844-1.6094 1.3789-0.42188-0.078125-0.85156-0.17188-1.2617-0.26172 0.37109-0.55859 1.1094-1.6211 1.6484-2.3906 3.8789 0.76172 7.9414 1.1914 12.102 1.2695-0.11719 0.24609-0.32031 0.41406-0.62891 0.40234zm-22.27-7.8867c-0.32812-1.8984 2.4102 0.51172 3.1914 0.53125 0.83984 0.25 0.94922-0.85156 0.41016-1.2305-1.8711-1.1992-1.8516-3.2695-1.1719-5.1094 0.12109-0.32812 0.51172-0.75 0.92969-1.1797h2.7812c0.26172 0 0.46875-0.21094 0.46875-0.46875 0-0.26172-0.21094-0.46875-0.46875-0.46875h-1.8984c0.21094-0.25 0.37109-0.48828 0.42969-0.71094 0.019531-0.058594 0.039062-0.12891 0.058594-0.19141h2.2617c0.26172 0 0.46875-0.21094 0.46875-0.46875 0-0.26172-0.21094-0.46875-0.46875-0.46875h-1.9219c0.12891-0.30859 0.28125-0.60938 0.42969-0.89844h2.0898c0.26172 0 0.46875-0.21094 0.46875-0.46875 0-0.26172-0.21094-0.46875-0.46875-0.46875h-1.5117c2.3281-3.3008 6.3086-4.6094 9.0312-5.25 0.71094-0.17188 1.1797-0.82812 1.1016-1.5508l-0.69141-6.2188c3.0586 0.21094 5.7383-0.19141 7.9219-0.78906h8.1406c0.19141 0.28125 0.37891 0.57812 0.55859 0.89844h-6.1719c-0.26172 0-0.46875 0.21094-0.46875 0.46875 0 0.26172 0.21094 0.46875 0.46875 0.46875h6.6797c0.14062 0.28906 0.28906 0.58984 0.42188 0.89844h-5.1211c-0.26172 0-0.46875 0.21094-0.46875 0.46875 0 0.26172 0.21094 0.46875 0.46875 0.46875h5.4883c0.10938 0.28906 0.21094 0.58984 0.30078 0.89844h-2.7695c-0.26172 0-0.46875 0.21094-0.46875 0.46875 0 0.26172 0.21094 0.46875 0.46875 0.46875h3.0312c0.070312 0.28906 0.14062 0.58984 0.19922 0.89844l-3.4297 0.003906c-0.26172 0-0.46875 0.21094-0.46875 0.46875 0 0.26172 0.21094 0.46875 0.46875 0.46875h3.6211c0.039062 0.28906 0.078125 0.58984 0.10938 0.89844h-2.3086c-0.26172 0-0.46875 0.21094-0.46875 0.46875 0 0.26172 0.21094 0.46875 0.46875 0.46875h2.3789c0.011719 0.28906 0.019531 0.60156 0.03125 0.89844h-1.6016c-0.26172 0-0.46875 0.21094-0.46875 0.46875 0 0.26172 0.21094 0.46875 0.46875 0.46875h1.5898c-0.011718 0.30078-0.03125 0.60156-0.050781 0.89844h-1.2891c-0.26172 0-0.46875 0.21094-0.46875 0.46875 0 0.26172 0.21094 0.46875 0.46875 0.46875h1.2188c-0.019531 0.28906-0.03125 0.58984-0.039063 0.89844h-1.1797c-0.26172 0-0.46875 0.21094-0.46875 0.46875 0 0.26172 0.21094 0.46875 0.46875 0.46875h1.1484c-0.011718 0.30078-0.011718 0.60156-0.011718 0.89844h-1.1406c-0.26172 0-0.46875 0.21094-0.46875 0.46875 0 0.26172 0.21094 0.46875 0.46875 0.46875h1.1406c0 0.30078 0.011718 0.60156 0.011718 0.89844h-1.1484c-0.26172 0-0.46875 0.21094-0.46875 0.46875 0 0.26172 0.21094 0.46875 0.46875 0.46875h1.1797c0.011719 0.30859 0.019532 0.60938 0.03125 0.89844h-1.2109c-0.26172 0-0.46875 0.21094-0.46875 0.46875 0 0.26172 0.21094 0.46875 0.46875 0.46875h1.2617c0.019531 0.30859 0.039062 0.62109 0.058593 0.89844h-1.5781c-0.26172 0-0.46875 0.21094-0.46875 0.46875 0 0.26172 0.21094 0.46875 0.46875 0.46875h1.1484c-2.8086 2.2109-5.3398 4.8789-7.3594 7.9688-9.4023 0.41406-19.16-1.2539-26.781-4.5938zm27.219 8.2969c-0.62109-0.46094 1.9414-2.3594 2.3008-2.8008 4.9609-4.1094 19.73-15.551 25.941-13.41-0.12891 0.070312-0.26172 0.19141-0.39844 0.19922-0.98828 0.019532-6.9102 0.94141-6.5117 2.1914 0.17969 0.51953 0.67188 0.28125 1.0508 0.19922 2.6016-0.57813 5.4219-1.6719 8-0.51172v0.19922c-2.8516 0.17187-5.6484 0.39844-8.3594 1.4414-3.8086 0.71875-7.3789 2.3516-10.559 4.5508-3.5703 2.5312-7.25 4.9492-10.641 7.7188-0.25391 0.18359-0.50391 0.55469-0.82422 0.22266zm10.102 0.03125c-0.26172 0.28906-0.53125 0.57812-0.78906 0.87109-0.35156 0.058594-0.69141 0.10938-1.0391 0.17188 0.69141-0.48828 1.2109-1.3203 2.0391-1.5312 0.019531 0.039062 0.050781 0.070312 0.070312 0.10938-0.09375 0.12891-0.17188 0.26953-0.28125 0.37891zm5.4375-2.3711c-0.62891 0.80078-1.2695 1.5898-1.8984 2.3906-0.53125 0.12109-1.0586 0.23828-1.5898 0.35156 1.0312-1.2617 2.1484-2.6094 3.6914-3.2891 0.039063 0.039063 0.070313 0.089844 0.10938 0.12891-0.12109 0.12891-0.21094 0.28125-0.3125 0.41797zm12.383-2.957c-0.69922 0.070313-1.5195-0.10938-2.1719 0.12109-0.41016 0.33984-0.66016 0.73828-0.089844 1.0391-1.7109 0.82031-3.5 1.5703-5.3594 2.2305v-0.03125c-0.011719-0.039062-0.019531-0.078125-0.039062-0.12109-0.019532-0.039063-0.039063-0.078126-0.058594-0.10938-0.019532-0.03125-0.050782-0.070312-0.078125-0.10156-0.12109-0.12109-0.28125-0.17969-0.44141-0.17969-0.019531-0.011718-0.039062-0.011718-0.058593-0.011718s-0.039063 0.011718-0.058594 0.019531c-0.12891 0.019531-0.26172 0.078125-0.35938 0.17188-0.03125 0.03125-0.058594 0.058594-0.078125 0.10156-0.019531 0.03125-0.039063 0.070313-0.058594 0.10938-0.019531 0.039062-0.03125 0.078124-0.039062 0.12109-0.011719 0.039063-0.011719 0.078125-0.011719 0.12891 0 0.10937 0.03125 0.21875 0.089844 0.30859-0.94922 0.32031-1.9297 0.60938-2.9102 0.89062 3.0508-3.9219 8.2695-6.1602 13.211-5.5312-0.5 0.28125-0.98828 0.5625-1.4883 0.84375zm4.8086-3.6328c-5.5391-0.55859-10.91 0.94922-15.852 3.5312-5.0117 1.4805-9.5586 3.9609-13.762 7.0586-0.57031 0.039062-1.1406 0.078124-1.7109 0.10937 2.8711-2.9297 6.6211-5.0781 10.41-6.6914 0.73828-0.28906 0.98047-0.94922-0.21094-1.2305 2.4297-1.8594 5.1211-3.25 7.9414-4.4102 0.96094-0.55078 2.0312-0.17188 3.0391-0.57812 2.0703-0.62891 4.3086-1.0703 6.4414-0.53906 0 0.078125 0.011719 0.14844 0.011719 0.23047-5.0781 0.41016-10.359 1.5703-14.512 4.6797-0.28125 0.53906-0.039062 0.96094 0.55078 0.91016 5.3281-2.6484 11.738-5.6406 17.68-3.2891 0.003907 0.070312-0.015625 0.14062-0.027343 0.21875z"/>
 <path d="m42.289 58.289h6.4297c0.26172 0 0.46875-0.21094 0.46875-0.46875 0-0.26172-0.21094-0.46875-0.46875-0.46875h-6.4297c-0.26172 0-0.46875 0.21094-0.46875 0.46875 0 0.25781 0.21094 0.46875 0.46875 0.46875z"/>
 <path d="m50.941 59.199h-8.5508c-0.26172 0-0.46875 0.21094-0.46875 0.46875 0 0.26172 0.21094 0.46875 0.46875 0.46875h8.5508c0.26172 0 0.46875-0.21094 0.46875-0.46875 0-0.24609-0.21094-0.46875-0.46875-0.46875z"/>
 <path d="m49.262 62.09c0.26172 0 0.46875-0.21094 0.46875-0.46875 0-0.26172-0.21094-0.46875-0.46875-0.46875l-0.86328-0.003906c-0.26172 0-0.46875 0.21094-0.46875 0.46875 0 0.26172 0.21094 0.46875 0.46875 0.46875z"/>
 <path d="m45.641 62.09c0.26172 0 0.46875-0.21094 0.46875-0.46875 0-0.26172-0.21094-0.46875-0.46875-0.46875h-0.44922c-0.26172 0-0.46875 0.21094-0.46875 0.46875 0 0.26172 0.21094 0.46875 0.46875 0.46875z"/>
 <path d="m33.609 34.031c-0.011719-0.039062-0.03125-0.070312-0.050781-0.10938-0.019532-0.03125-0.050782-0.070313-0.078125-0.089844-0.23047-0.23047-0.62891-0.23047-0.85938 0-0.03125 0.03125-0.050782 0.058594-0.078125 0.089844-0.019531 0.03125-0.039063 0.070313-0.058594 0.10938-0.011719 0.039062-0.03125 0.078125-0.03125 0.10938-0.011719 0.039063-0.011719 0.078125-0.011719 0.12109 0 0.16016 0.070313 0.32031 0.17969 0.42969s0.26953 0.17969 0.42969 0.17969c0.16016 0 0.32031-0.070313 0.42969-0.17969s0.17969-0.26953 0.17969-0.42969c0-0.039063 0-0.078125-0.011718-0.12109-0.007813-0.039063-0.019532-0.082031-0.039063-0.10938z"/>
 <path d="m36.57 34.68c-0.011718-0.039063-0.03125-0.070313-0.050781-0.10938-0.019531-0.03125-0.050781-0.070312-0.078125-0.089843-0.23047-0.23047-0.62891-0.23047-0.85938 0-0.03125 0.03125-0.050781 0.058593-0.078125 0.089843-0.019531 0.03125-0.039062 0.070313-0.058594 0.10938-0.011718 0.039062-0.03125 0.078124-0.03125 0.10937-0.011718 0.039063-0.011718 0.078126-0.011718 0.12109 0 0.16016 0.070312 0.32031 0.17969 0.42969s0.26953 0.17969 0.42969 0.17969c0.16016 0 0.32031-0.070312 0.42969-0.17969s0.17969-0.26953 0.17969-0.42969c0-0.039062 0-0.078125-0.011719-0.12109-0.007813-0.027343-0.03125-0.070312-0.039063-0.10937z"/>
 <path d="m32.23 26.078c0.16016 0 0.32031-0.070313 0.42969-0.17969 0.10938-0.10938 0.17969-0.26953 0.17969-0.42969 0-0.039062 0-0.078125-0.011719-0.12109-0.011719-0.039062-0.019531-0.078125-0.03125-0.10938-0.011719-0.039062-0.03125-0.070312-0.050781-0.10938-0.019532-0.03125-0.050782-0.070312-0.078125-0.089844-0.23047-0.23047-0.62891-0.23047-0.85938 0-0.03125 0.03125-0.050782 0.058594-0.078125 0.089844-0.019531 0.03125-0.039063 0.070313-0.058594 0.10938-0.011719 0.039063-0.03125 0.078125-0.03125 0.10938-0.011719 0.039063-0.011719 0.078125-0.011719 0.12109 0 0.16016 0.070313 0.32031 0.17969 0.42969 0.11328 0.12109 0.26172 0.17969 0.42188 0.17969z"/>
 <path d="m32.539 23.77c0.16016 0 0.32031-0.070312 0.42969-0.17969s0.17969-0.26953 0.17969-0.42969c0-0.039062 0-0.078125-0.011719-0.12109-0.011719-0.039062-0.019531-0.078124-0.03125-0.10937-0.011719-0.039063-0.03125-0.070313-0.050781-0.10938-0.019532-0.03125-0.050782-0.070312-0.078126-0.089843-0.23047-0.23047-0.62891-0.23047-0.85937 0-0.03125 0.03125-0.050782 0.058593-0.078126 0.089843-0.019531 0.03125-0.039062 0.070313-0.058593 0.10938-0.011719 0.039062-0.03125 0.078124-0.03125 0.10937-0.011719 0.039063-0.011719 0.078126-0.011719 0.12109 0 0.16016 0.070312 0.32031 0.17969 0.42969 0.10156 0.10938 0.26172 0.17969 0.42187 0.17969z"/>
 <path d="m33.07 21.531c0.16016 0 0.32031-0.070312 0.42969-0.17969 0.10938-0.10937 0.17969-0.26953 0.17969-0.42969 0-0.039063 0-0.078125-0.011719-0.12109-0.011719-0.039062-0.019531-0.078125-0.03125-0.10938-0.011719-0.039062-0.03125-0.070312-0.050781-0.10938-0.019532-0.03125-0.050782-0.070312-0.078126-0.089843-0.23047-0.23047-0.62891-0.23047-0.85937 0-0.03125 0.03125-0.050782 0.058593-0.078126 0.089843-0.019531 0.03125-0.039062 0.070313-0.058593 0.10938-0.011719 0.039063-0.03125 0.078125-0.03125 0.10938-0.011719 0.039063-0.011719 0.078125-0.011719 0.12109 0 0.16016 0.070312 0.32031 0.17969 0.42969 0.10156 0.10938 0.26172 0.17969 0.42187 0.17969z"/>
 <path d="m34.219 19.43c0.16016 0 0.32031-0.070313 0.42969-0.17969 0.10937-0.10938 0.17969-0.26953 0.17969-0.42969 0-0.039062 0-0.078124-0.011719-0.12109-0.011718-0.039063-0.019531-0.078125-0.03125-0.10938-0.011718-0.039063-0.03125-0.070313-0.050781-0.10938-0.019531-0.03125-0.050781-0.070313-0.078125-0.089844-0.23047-0.23047-0.62891-0.23047-0.85938 0-0.03125 0.03125-0.050781 0.058594-0.078125 0.089844-0.019531 0.03125-0.039062 0.070312-0.058594 0.10938-0.011718 0.039062-0.03125 0.078125-0.03125 0.10938-0.011718 0.039062-0.011718 0.078125-0.011718 0.12109 0 0.16016 0.058593 0.32031 0.17969 0.42969 0.10156 0.12109 0.26172 0.17969 0.42188 0.17969z"/>
 <path d="m36.371 18.02c0.16016 0 0.32031-0.070312 0.42969-0.17969s0.17969-0.26953 0.17969-0.42969c0-0.039062 0-0.078125-0.011719-0.12109-0.011719-0.039062-0.019531-0.078124-0.03125-0.10937-0.011719-0.039063-0.03125-0.070313-0.050781-0.10938-0.019531-0.03125-0.050781-0.070312-0.078125-0.089843-0.23047-0.23047-0.62891-0.23047-0.85938 0-0.03125 0.03125-0.050781 0.058593-0.078125 0.089843-0.019532 0.03125-0.039063 0.070313-0.058594 0.10938-0.011719 0.039062-0.03125 0.078124-0.03125 0.10937-0.011719 0.039063-0.011719 0.078126-0.011719 0.12109 0 0.16016 0.070313 0.32031 0.17969 0.42969s0.26172 0.17969 0.42188 0.17969z"/>
 <path d="m39.16 17.441c0.16016 0 0.32031-0.070312 0.42969-0.17969s0.17969-0.26953 0.17969-0.42969c0-0.039062 0-0.078125-0.011719-0.12109-0.011718-0.039063-0.019531-0.078126-0.03125-0.10938-0.011718-0.039062-0.03125-0.070312-0.050781-0.10937-0.019531-0.03125-0.050781-0.070313-0.078125-0.089844-0.23047-0.23047-0.62891-0.23047-0.85938 0-0.03125 0.03125-0.050781 0.058594-0.078125 0.089844-0.019531 0.03125-0.039062 0.070312-0.058594 0.10937-0.011718 0.039063-0.03125 0.078126-0.03125 0.10938-0.011718 0.039062-0.011718 0.078124-0.011718 0.12109 0 0.16016 0.058594 0.32031 0.17969 0.42969 0.10156 0.10938 0.26172 0.17969 0.42188 0.17969z"/>
 <path d="m42.02 17.352c0.16016 0 0.32031-0.070312 0.42969-0.17969s0.17969-0.26953 0.17969-0.42969c0-0.039063 0-0.078126-0.011718-0.12109-0.011719-0.039063-0.019532-0.078125-0.03125-0.10938-0.011719-0.039063-0.03125-0.070313-0.050782-0.10938-0.019531-0.03125-0.050781-0.070313-0.078125-0.089844-0.23047-0.23047-0.62891-0.23047-0.85938 0-0.03125 0.03125-0.050781 0.058594-0.078125 0.089844-0.019531 0.03125-0.039062 0.070312-0.058593 0.10938-0.011719 0.039062-0.03125 0.078125-0.03125 0.10938-0.011719 0.039062-0.011719 0.078125-0.011719 0.12109 0 0.16016 0.070312 0.32031 0.17969 0.42969 0.11328 0.11719 0.26172 0.17969 0.42188 0.17969z"/>
 <path d="m44.891 17.852c0.16016 0 0.32031-0.070312 0.42969-0.17969 0.10938-0.10938 0.17969-0.26953 0.17969-0.42969 0-0.039063 0-0.078126-0.011719-0.12109-0.011719-0.039063-0.019531-0.078125-0.03125-0.10938-0.011719-0.039063-0.03125-0.070313-0.050781-0.10938-0.019531-0.03125-0.050781-0.070313-0.078125-0.089844-0.23047-0.23047-0.62891-0.23047-0.85938 0-0.03125 0.03125-0.050781 0.058594-0.078125 0.089844-0.019531 0.03125-0.039063 0.070312-0.058594 0.10938-0.011719 0.039062-0.03125 0.078125-0.03125 0.10938-0.011719 0.039062-0.011719 0.078125-0.011719 0.12109 0 0.16016 0.070313 0.32031 0.17969 0.42969s0.26172 0.17969 0.42188 0.17969z"/>
 <path d="m51.262 34.949c0.16016 0 0.32031-0.070313 0.42969-0.17969s0.17969-0.26953 0.17969-0.42969c0-0.039063 0-0.078125-0.011719-0.12109-0.011719-0.039062-0.019531-0.078125-0.03125-0.10938-0.011719-0.039063-0.03125-0.070313-0.050781-0.10938-0.019532-0.03125-0.050782-0.070312-0.078125-0.089844-0.23047-0.23047-0.62891-0.23047-0.85938 0-0.03125 0.03125-0.050782 0.058594-0.078125 0.089844-0.019531 0.03125-0.039063 0.070312-0.058594 0.10938-0.011719 0.039063-0.03125 0.078125-0.03125 0.10938-0.011719 0.039062-0.011719 0.078125-0.011719 0.12109 0 0.16016 0.070313 0.32031 0.17969 0.42969 0.10156 0.12109 0.26172 0.17969 0.42188 0.17969z"/>
 <path d="m50.148 83.648c-2.8594 0.39062-8.6484 0.16016-13-0.87109-0.25-0.058594-0.51172 0.10156-0.57031 0.35156s0.10156 0.51172 0.35156 0.57031c3.1016 0.73828 6.9297 1.0781 9.9609 1.0781 1.3203 0 2.4883-0.058594 3.3789-0.17969 0.26172-0.03125 0.44141-0.26953 0.39844-0.53125-0.019531-0.27734-0.25781-0.45703-0.51953-0.41797z"/>
 <path d="m34.672 82.27c-2.5703-0.57812-4.1406-1.1211-4.1602-1.1289-0.25-0.089844-0.51172 0.039063-0.60156 0.28906s0.039063 0.51172 0.28906 0.60156c0.070312 0.019531 1.6406 0.57031 4.2695 1.1602 0.03125 0.011719 0.070312 0.011719 0.10156 0.011719 0.21875 0 0.41016-0.14844 0.46094-0.37109 0.046875-0.25391-0.10938-0.50391-0.35938-0.5625z"/>
 <path d="m75.48 85.262c-0.019531-0.039063-0.039063-0.078125-0.058594-0.12109-0.03125-0.039063-0.058594-0.078125-0.089844-0.10938-0.26172-0.26172-0.73828-0.26172-1 0-0.03125 0.03125-0.058593 0.070312-0.089843 0.10938s-0.050782 0.078125-0.070313 0.12109c-0.019531 0.039062-0.03125 0.089843-0.039063 0.12891-0.011718 0.039063-0.011718 0.089844-0.011718 0.14062 0 0.19141 0.078125 0.37109 0.21094 0.5 0.12891 0.12891 0.30859 0.21094 0.5 0.21094 0.19141 0 0.37109-0.078126 0.5-0.21094 0.12891-0.12891 0.21094-0.30859 0.21094-0.5 0-0.050781 0-0.089844-0.011719-0.14062s-0.03125-0.089844-0.050781-0.12891z"/>
 <path d="m76.328 57.379c2.4492 0 4.5312 2.6484 4.5312 5.7812 0 0.64844 0.53125 1.1797 1.1797 1.1797 0.64844 0 1.1797-0.53125 1.1797-1.1797 0-3.1289 2.0703-5.7812 4.5312-5.7812 0.64844 0 1.1797-0.53125 1.1797-1.1797 0-0.64844-0.53125-1.1797-1.1797-1.1797-2.5 0-4.5312-2.5391-4.5312-5.6719 0-0.64844-0.53125-1.1797-1.1797-1.1797-0.64844 0-1.1797 0.53125-1.1797 1.1797 0 3.1211-2.0312 5.6719-4.5312 5.6719-0.64844 0-1.1797 0.53125-1.1797 1.1797 0 0.65234 0.53125 1.1797 1.1797 1.1797zm5.7109-3.5391c0.55078 0.96094 1.2812 1.7695 2.1289 2.3711-0.85156 0.60937-1.5703 1.4297-2.1289 2.3984-0.55078-0.96875-1.2812-1.7891-2.1289-2.3984 0.83984-0.60938 1.5703-1.4219 2.1289-2.3711z"/>
<text x="0.0" y="117.5" font-size="5.0" font-weight="bold" font-family="Arbeit Regular, Helvetica, Arial-Unicode, Arial, Sans-serif" fill="#000000">Created by Dumpweed</text><text x="0.0" y="122.5" font-size="5.0" font-weight="bold" font-family="Arbeit Regular, Helvetica, Arial-Unicode, Arial, Sans-serif" fill="#000000">from Noun Project</text></svg>